<svg id="SvgjsSvg1001" width="288" height="288" xmlns="http://www.w3.org/2000/svg" version="1.1" xmlns:xlink="http://www.w3.org/1999/xlink" xmlns:svgjs="http://svgjs.com/svgjs"><defs id="SvgjsDefs1002"></defs><g id="SvgjsG1008" transform="matrix(1,0,0,1,0,0)"><svg xmlns="http://www.w3.org/2000/svg" enable-background="new 0 0 512 512" viewBox="0 0 512 512" width="288" height="288"><path fill="#000000" d="M110.69,36.62h290.62c44.06,0,79.69,35.62,79.69,79.69v279.38c0,44.06-35.62,79.69-79.69,79.69H110.69					c-44.06,0-79.69-35.62-79.69-79.69V116.31C31,72.25,66.62,36.62,110.69,36.62z" class="color300 svgShape"></path><path fill="#ffffff" d="M249.06 299.88h-69.75l-14.25 44.06c-.38 1.69-1.88 2.81-3.56 2.62h-35.25c-2.06 0-2.63-1.12-2.06-3.38l60.38-173.81c.56-1.88 1.12-3.94 1.88-6.19.75-3.94 1.12-8.06 1.12-12.19-.19-.94.56-1.88 1.5-2.06.19 0 .38 0 .56 0h48c1.5 0 2.25.56 2.44 1.5l68.44 193.12c.56 2.06 0 3-1.88 3h-39.19c-1.31.19-2.62-.75-3-2.06L249.06 299.88zM190.19 261.81h47.62c-1.12-3.94-2.62-8.62-4.31-13.5-1.69-5.06-3.38-10.5-5.06-16.12-1.88-5.81-3.56-11.44-5.44-17.25s-3.56-11.25-5.06-16.69c-1.5-5.25-2.81-10.13-4.12-14.63h-.38c-1.69 8.06-3.75 16.12-6.38 24.19-2.81 9-5.62 18.38-8.62 27.75C195.81 245.12 193 253.94 190.19 261.81L190.19 261.81zM349.38 181c-6.19.19-12.19-2.25-16.69-6.56-4.31-4.69-6.56-10.88-6.38-17.25-.19-6.38 2.25-12.37 6.75-16.69 4.5-4.31 10.5-6.56 16.69-6.56 7.31 0 12.94 2.25 17.06 6.56 4.12 4.5 6.38 10.5 6.19 16.69.19 6.38-2.06 12.56-6.56 17.25C362.12 178.94 355.75 181.38 349.38 181zM328.38 343.75V199.38c0-1.88.75-2.62 2.44-2.62h37.12c1.69 0 2.44.94 2.44 2.62v144.38c0 2.06-.75 3-2.44 3h-36.75C329.31 346.75 328.38 345.62 328.38 343.75z" class="colorff9a00 svgShape"></path></svg></g></svg>