<svg xmlns="http://www.w3.org/2000/svg" enable-background="new 0 0 24 24" viewBox="0 0 24 24"><path d="M16.433 9.541c-.957 0-1.37.842-1.468 1.732h2.013l.002.002c.512 0 .693 0 .742-.016 0-.068.017-.125.017-.174C17.739 10.54 17.473 9.541 16.433 9.541zM8.368 6.926c-.214 1.17-.756 3.148-1.17 4.7H9.59c-.28-1.106-.96-3.53-1.206-4.7H8.368z"/><path d="M0,2v20c0,1.105,0.895,2,2,2h20c1.105,0,2-0.895,2-2V2c0-1.105-0.895-2-2-2H2C0.895,0,0,0.895,0,2z M12.609,16.346h-1.65c-0.082,0-0.13-0.03-0.147-0.096l-0.825-3.002h-3.2L6.784,13.25l-0.792,2.986c-0.017,0.083-0.05,0.113-0.148,0.113H4.376c-0.1,0-0.116-0.035-0.1-0.15l2.84-9.933c0.05-0.18,0.082-0.325,0.098-0.82c0-0.066,0.033-0.1,0.083-0.1h2.096c0.066,0,0.1,0.018,0.116,0.1l3.183,10.77C12.708,16.298,12.692,16.346,12.609,16.346z M19.354,12.46c-0.017,0.082-0.05,0.11-0.132,0.127c-0.198,0.033-0.792,0.066-1.667,0.066H14.95c0.018,1.351,0.661,2.257,2.178,2.257c0.594,0,1.103-0.078,1.63-0.31c0.067-0.032,0.117-0.015,0.117,0.067v1.254c0,0.1-0.033,0.15-0.1,0.2c-0.527,0.264-1.184,0.38-2.01,0.38c-2.64,0-3.63-1.947-3.63-4.125c0-2.36,1.222-4.29,3.367-4.29c2.178,0,2.937,1.833,2.937,3.317C19.439,11.883,19.404,12.279,19.354,12.46z"/></svg>